<svg width="121" height="23" viewBox="0 0 121 23" fill="none" xmlns="http://www.w3.org/2000/svg">
<path d="M18.754 6.8428C19.6052 5.92171 20.4515 4.99597 21.2928 4.06571C23.1023 2.08192 24.2405 0.86537 26.9837 0.226327C31.5973 -0.848476 35.9671 2.00786 36.96 6.60814C37.4469 8.8173 37.035 11.1294 35.8151 13.0345C34.5683 14.9218 32.6232 16.2367 30.4072 16.6905C28.0575 17.1744 25.5914 16.5564 23.6098 15.2448L23.4336 15.1485C23.4062 15.1651 23.3789 15.1815 23.3514 15.1981C23.2859 16.425 23.5138 19.8948 23.2634 20.9026C23.1506 21.3508 22.93 21.7645 22.6209 22.108C22.2463 22.5288 21.2236 23.29 20.6962 22.8085C20.5665 22.4953 20.6383 13.3413 20.6422 12.4531C20.0069 11.8359 19.3494 11.1387 18.7258 10.5022C15.9275 13.2589 13.464 16.4804 9.36432 16.8047C7.08874 16.9846 4.76681 16.3002 3.01055 14.8519C1.31372 13.4788 0.241438 11.4802 0.0357613 9.30708C-0.170804 7.05279 0.523354 4.80848 1.96658 3.06448C3.48434 1.23877 5.42411 0.272344 7.78762 0.0586006C8.02399 0.00745535 8.83781 0.0133352 9.08889 0.0281728C12.4917 0.228651 13.9872 1.74332 16.1177 4.00951L18.754 6.8428ZM10.6755 13.6808C13.0161 12.7293 14.9338 10.4819 16.7454 8.67788L14.3431 6.11275C12.5562 4.21135 11.2902 2.82516 8.46653 2.72752C8.4441 2.72677 8.4216 2.72622 8.39918 2.72588C6.67246 2.87098 5.25727 3.45593 4.11278 4.80855C3.13343 5.95843 2.65691 7.45347 2.79031 8.95795C2.91893 10.4122 3.61582 11.7571 4.72968 12.7009C5.9195 13.7169 7.46639 14.2148 9.02544 14.0835C9.52227 14.0395 10.2196 13.8894 10.6755 13.6808ZM20.8188 8.66851C22.6165 10.5456 24.5605 12.976 26.9614 13.8424C28.5863 14.2669 30.0468 14.2111 31.5343 13.3465C32.8828 12.5775 33.8658 11.299 34.2626 9.79822C34.6438 8.34537 34.372 6.77983 33.6094 5.49573C32.8457 4.20226 31.5938 3.27036 30.1356 2.90988C29.5749 2.76855 29.2037 2.7438 28.6289 2.72458C26.1281 2.93518 25.115 3.91207 23.5378 5.69422C22.7715 6.56014 21.6318 7.8666 20.8188 8.66851Z" fill="#00B350"/>
<path d="M46.7324 0.0578983C47.2837 -0.101965 48.4938 0.117182 49.1891 0.163336C51.1818 0.295575 56.3524 3.75014 54.1578 6.04956C53.9446 6.27301 52.0691 7.41038 51.6162 7.69776L46.3924 11.0238C45.936 11.3083 45.438 11.6367 44.8931 11.4678C43.682 11.0924 43.5085 9.64477 44.5262 8.91383C45.2294 8.40887 45.9401 7.99855 46.6629 7.54939C48.2565 6.5591 49.8666 5.33879 51.5173 4.46521C49.2608 2.58357 46.6579 2.07581 44.0998 3.78125C42.8313 4.61099 41.9511 5.91732 41.6584 7.40463C41.3235 9.11759 41.7635 10.4142 42.7068 11.8225C45.1846 14.8659 49.4332 14.876 51.9996 11.8865C52.5383 11.259 52.923 10.3497 53.8347 10.2324C54.2199 10.1815 54.6095 10.2855 54.9179 10.5217C55.1919 10.7334 55.3689 11.0466 55.4089 11.3905C55.491 12.0839 54.6588 13.0783 54.209 13.6301C52.7211 15.4273 50.5856 16.5668 48.2643 16.8019C45.9723 17.0312 43.6823 16.3481 41.8906 14.9006C40.1647 13.4736 39.076 11.4197 38.8636 9.19027C38.4136 4.47157 42.0845 0.478685 46.7324 0.0578983Z" fill="#00B350"/>
<path d="M111.242 0.0579359C111.777 -0.0802522 113.214 0.081526 113.763 0.195919C115.914 0.626757 117.799 1.90717 118.992 3.74717C119.562 4.6206 119.96 5.59469 120.165 6.61712C120.254 7.08255 120.311 7.55353 120.336 8.02676C120.364 8.63018 120.383 9.34313 120.356 9.98723C120.277 11.909 120.468 14.0283 120.312 15.9183C120.219 17.0327 118.015 17.2744 117.747 15.9596C117.627 15.3687 117.706 14.7634 117.709 14.1284L117.712 10.2906C117.712 9.4405 117.742 8.16857 117.599 7.37219C117.477 6.69554 117.234 6.04624 116.882 5.4552C116.125 4.17554 114.83 3.25322 113.393 2.8926C111.853 2.50026 110.219 2.74443 108.862 3.57007C107.366 4.47845 106.525 5.72433 106.119 7.39872C105.992 8.01281 105.995 8.71687 106.1 9.33335C106.344 10.8222 107.171 12.153 108.397 13.032C109.731 13.975 111.537 14.389 113.125 13.9197C114.043 13.6487 115.006 12.9376 115.919 13.6077C116.184 13.8026 116.334 14.0728 116.377 14.3969C116.429 14.8116 116.316 15.23 116.062 15.5619C115.481 16.3176 113.871 16.6259 112.961 16.7329C110.632 17.0068 108.288 16.3476 106.444 14.8992C104.711 13.5353 103.601 11.5306 103.366 9.33821C103.124 7.17876 103.749 5.01144 105.104 3.31284C106.688 1.34081 108.743 0.328226 111.242 0.0579359Z" fill="#00B350"/>
<path d="M78.0195 0.0586937C78.6889 -0.0440072 79.7351 0.0550691 80.4059 0.186214C82.6206 0.619103 84.2924 1.78198 85.5621 3.62779C87.5095 6.45883 86.9618 9.2922 87.0288 12.5137C87.0049 13.5995 87.1273 14.6249 86.9933 15.7094C86.8196 17.1127 84.8736 17.2253 84.4367 16.0199C84.291 15.6181 84.3361 14.5315 84.3375 14.0694L84.3539 10.1826C84.356 9.2736 84.3949 8.17876 84.2336 7.29828C84.1119 6.62027 83.8657 5.97076 83.5067 5.3828C82.717 4.10587 81.4459 3.20057 79.9812 2.87086C78.4325 2.50539 76.8017 2.78211 75.4609 3.63797C74.066 4.51668 73.2434 5.76269 72.8872 7.35716C72.7484 8.11777 72.7258 8.76563 72.8762 9.53117C73.1531 11.002 74.0099 12.2997 75.2544 13.1323C76.5282 13.9836 78.2985 14.3671 79.7959 13.9371C80.3703 13.7653 80.9125 13.4665 81.4978 13.3347C82.7696 13.0484 83.4992 14.5853 82.7676 15.5383C82.49 15.9047 82.0353 16.0272 81.6291 16.1954C78.7915 17.3703 75.3535 16.6986 73.0096 14.7734C71.3569 13.3944 70.3141 11.4201 70.107 9.27798C69.897 7.03736 70.5918 4.80584 72.0359 3.0803C73.5757 1.23449 75.6462 0.278044 78.0195 0.0586937Z" fill="#00B350"/>
<path d="M88.7977 0.585673C90.0032 0.61487 90.1728 1.36092 90.5584 2.31272C90.7403 2.7614 90.9256 3.21972 91.1095 3.66834L93.6545 9.91805C93.8904 10.5009 95.0822 13.6881 95.4535 13.8782C96.0094 13.5738 100.275 2.61248 101.075 1.2414C101.799 0.00269843 104.093 0.583347 103.676 2.04085C103.566 2.42636 103.122 3.37637 102.928 3.80762C101.155 7.70253 99.5451 11.7051 97.7427 15.5885C97.4781 16.1589 96.8026 16.6095 96.2015 16.7776C95.4877 16.9836 94.7212 16.8924 94.0764 16.5247C92.9454 15.8824 92.3574 13.8554 91.8651 12.6714L89.4835 6.8961L88.2466 3.91784C87.7215 2.67771 86.7861 1.11921 88.7977 0.585673Z" fill="#00B350"/>
<path d="M65.3247 0.12854C66.7558 0.134215 68.6362 0.61695 69.748 1.56786C70.3613 2.09216 70.3709 2.98481 69.7952 3.55288C68.7654 4.5695 67.8293 3.4551 66.8303 3.11815C65.0286 2.50987 62.9541 3.20567 61.646 4.52464C59.9407 6.24738 59.9585 8.02222 59.9578 10.2654L59.9605 13.3886C59.9558 14.2984 60.1664 15.7266 59.5879 16.4792C59.1797 17.0109 58.1739 16.9734 57.6998 16.5408C57.3518 16.2232 57.2933 15.8835 57.2625 15.4309C57.2385 14.2128 57.2962 12.9946 57.2795 11.7761C57.2666 11.1052 57.2985 10.3746 57.2664 9.71528C57.141 7.14522 57.7167 4.82981 59.4395 2.83596C61.0443 0.979412 62.9117 0.277873 65.3247 0.12854Z" fill="#00B350"/>
</svg>
